<svg width="132" height="46" viewBox="0 0 132 46" fill="none" xmlns="http://www.w3.org/2000/svg">
<g clip-path="url(#clip0_2088_25179)">
<path d="M27.2025 45.5H7.1581C5.26227 45.4998 3.44393 44.7476 2.10199 43.4084C0.760053 42.0693 0.00410931 40.2525 0 38.3566L0 7.64259C0.00431447 5.74689 0.760349 3.9303 2.10226 2.5913C3.44418 1.25229 5.2624 0.500201 7.1581 0.5L27.2025 0.5C27.2015 1.25012 27.3494 1.99297 27.6376 2.68551C27.9258 3.37805 28.3486 4.00652 28.8815 4.53448C29.4122 5.06707 30.0431 5.48929 30.7378 5.77679C31.4325 6.06429 32.1773 6.21138 32.9291 6.20957C34.445 6.20958 35.899 5.60858 36.9725 4.53831C38.0459 3.46805 38.6513 2.01584 38.6558 0.5L122.41 0.5C124.306 0.499995 126.124 1.252 127.466 2.59102C128.809 3.93005 129.565 5.74676 129.569 7.64259V38.3559C129.565 40.2518 128.809 42.0688 127.467 43.4082C126.125 44.7475 124.307 45.4998 122.411 45.5H38.6558C38.6646 44.7423 38.523 43.9904 38.2391 43.2878C37.9553 42.5853 37.5348 41.946 37.0021 41.4071C36.4695 40.8682 35.8351 40.4403 35.1359 40.1483C34.4367 39.8563 33.6865 39.7059 32.9288 39.7059C32.171 39.7059 31.4208 39.8563 30.7216 40.1483C30.0224 40.4403 29.388 40.8682 28.8554 41.4071C28.3227 41.946 27.9022 42.5853 27.6184 43.2878C27.3345 43.9904 27.1929 44.7423 27.2017 45.5H27.2025Z" fill="#8A2FFF"/>
<path d="M64.2842 0.5H124.283C126.177 0.5 127.994 1.25252 129.334 2.59202C130.673 3.93151 131.426 5.74826 131.426 7.64259V38.3566C131.426 39.2947 131.241 40.2237 130.882 41.0904C130.523 41.9571 129.997 42.7446 129.334 43.408C128.67 44.0713 127.883 44.5975 127.016 44.9565C126.149 45.3154 125.22 45.5001 124.282 45.5H64.2842V0.5Z" fill="black"/>
<path d="M18.4657 21.1458H22.1355C22.1053 20.3462 21.8885 19.5648 21.5024 18.864C21.1417 18.2336 20.6517 17.6865 20.0647 17.2587C19.4596 16.8201 18.7805 16.494 18.0599 16.2959C17.3001 16.0832 16.5144 15.9766 15.7253 15.9793C14.7131 15.961 13.7077 16.1495 12.7709 16.5333C11.9376 16.8825 11.1904 17.4091 10.5814 18.0765C9.97128 18.7569 9.50872 19.5562 9.22285 20.4242C8.90697 21.3724 8.74969 22.3662 8.75733 23.3655C8.74643 24.3252 8.91646 25.2783 9.25854 26.1749C9.57163 26.9954 10.0466 27.7445 10.6551 28.3776C11.2729 29.0043 12.0165 29.4929 12.8368 29.8114C13.7314 30.1621 14.6854 30.3368 15.6462 30.3258C17.2539 30.3925 18.8332 29.8879 20.1043 28.9013C21.3199 27.848 22.077 26.3623 22.2147 24.7598H18.6007C18.5196 25.5118 18.2008 26.2185 17.6906 26.777C17.4161 27.0386 17.0904 27.2404 16.734 27.3698C16.3776 27.4992 15.9982 27.5534 15.6198 27.5288C15.1003 27.5446 14.5875 27.4069 14.1457 27.1331C13.747 26.8772 13.4157 26.5291 13.1797 26.1183C12.9357 25.687 12.762 25.2195 12.6653 24.7334C12.5617 24.2399 12.5086 23.7371 12.5071 23.2329C12.5069 22.7146 12.5589 22.1976 12.6622 21.6897C12.762 21.1877 12.9456 20.7062 13.2053 20.2652C13.4524 19.8421 13.7919 19.4803 14.1984 19.2069C14.6469 18.9219 15.1711 18.7793 15.7021 18.798C16.0391 18.7634 16.3796 18.7973 16.7031 18.8977C17.0267 18.9982 17.3266 19.163 17.5848 19.3823C17.8429 19.6016 18.0541 19.8709 18.2055 20.174C18.3569 20.4771 18.4454 20.8076 18.4657 21.1458V21.1458ZM28.1764 14.2329V11.1465H24.4305V14.2329H28.1764ZM24.4305 16.3432V29.9829H28.1764V16.3448L24.4305 16.3432ZM31.1309 16.3432V29.9829H34.8767V22.8341C34.7895 21.7891 35.0292 20.7428 35.5626 19.84C35.8317 19.5215 36.1735 19.2724 36.5592 19.114C36.9449 18.9556 37.3632 18.8925 37.7785 18.9299C38.1362 18.8913 38.4977 18.9478 38.8266 19.0937C39.1554 19.2396 39.44 19.4698 39.6514 19.7609C40.0543 20.5366 40.2368 21.4079 40.179 22.2801V29.9829H43.9248V21.5942C43.9317 20.8191 43.8565 20.0454 43.7006 19.2861C43.5763 18.6466 43.3113 18.0429 42.9247 17.5186C42.5275 17.0139 42.0044 16.6227 41.4079 16.3843C40.6209 16.0862 39.7826 15.9473 38.9415 15.9754C38.1366 15.9792 37.3431 16.1649 36.6201 16.5186C35.8452 16.8963 35.2019 17.4983 34.7735 18.2464H34.696V16.3471L31.1309 16.3432ZM55.9538 21.6967H49.8602C49.8853 21.3925 49.9428 21.0918 50.0316 20.7998C50.1348 20.4534 50.3051 20.1307 50.5328 19.8501C50.7916 19.5341 51.1155 19.2776 51.4825 19.0983C51.9484 18.881 52.4591 18.7771 52.9729 18.7949C53.3467 18.7653 53.7224 18.8158 54.075 18.9432C54.4276 19.0706 54.7489 19.2719 55.0173 19.5336C55.5241 20.155 55.8483 20.9049 55.9538 21.6998V21.6967ZM49.8602 24.0708H59.6997C59.7732 23.052 59.6842 22.028 59.4359 21.0372C59.2065 20.106 58.7989 19.2281 58.2356 18.452C57.6781 17.6926 56.9509 17.0738 56.1121 16.645C55.1703 16.1783 54.1292 15.9474 53.0784 15.9723C52.1051 15.9595 51.1396 16.1481 50.2427 16.5263C49.414 16.8789 48.6649 17.3947 48.04 18.0431C47.4155 18.6994 46.9308 19.4757 46.6155 20.3249C46.2757 21.236 46.1058 22.2016 46.1143 23.1739C46.1029 24.1625 46.2682 25.1452 46.6023 26.0756C46.9047 26.9192 47.3759 27.6921 47.9872 28.3473C48.6003 28.9907 49.348 29.4906 50.1767 29.8114C51.1024 30.1659 52.0873 30.3405 53.0784 30.3258C54.4721 30.3678 55.8476 30.001 57.0353 29.2706C58.2302 28.4214 59.089 27.1797 59.4622 25.7622H56.1648C55.9777 26.2646 55.6246 26.6881 55.164 26.9624C54.5881 27.3499 53.9057 27.5482 53.2119 27.5296C52.3265 27.5893 51.4537 27.2952 50.785 26.7118C50.1516 25.9826 49.8208 25.039 49.8602 24.0739V24.0708Z" fill="white"/>
<path d="M77.2336 21.1304H78.8955C78.8777 20.4647 78.7251 19.8097 78.447 19.2047C78.1953 18.6749 77.8306 18.2067 77.3787 17.8329C76.9202 17.4584 76.3909 17.1802 75.8223 17.0152C75.201 16.8348 74.5567 16.7459 73.9098 16.7514C73.3014 16.7526 72.6951 16.8234 72.1028 16.9624C71.5216 17.0929 70.965 17.3156 70.4541 17.6219C69.9655 17.9174 69.5541 18.3248 69.2538 18.8105C68.9351 19.3438 68.7749 19.9569 68.7922 20.5779C68.7764 21.0817 68.8757 21.5824 69.0824 22.042C69.2719 22.4319 69.5469 22.774 69.887 23.0429C70.2519 23.3281 70.6562 23.5591 71.0872 23.7287C71.5772 23.924 72.0795 24.0871 72.5908 24.2167L74.7276 24.6916C75.0969 24.7795 75.4618 24.885 75.8223 25.0081C76.1614 25.1209 76.4849 25.276 76.7851 25.4698C77.0577 25.6453 77.2876 25.8797 77.4578 26.1556C77.6342 26.4643 77.721 26.816 77.7084 27.1712C77.7228 27.5992 77.5981 28.0203 77.3531 28.3715C77.1102 28.7015 76.7997 28.9758 76.4422 29.176C76.0686 29.3887 75.6634 29.5401 75.242 29.6245C74.8298 29.7105 74.41 29.7547 73.9889 29.7564C72.9911 29.7904 72.0108 29.4876 71.2059 28.8967C70.8256 28.5906 70.5184 28.2034 70.3067 27.7634C70.0951 27.3234 69.9842 26.8417 69.9824 26.3535H68.3174C68.3228 27.0469 68.4776 27.731 68.7712 28.3591C69.0648 28.9873 69.4904 29.5449 70.0188 29.9938C71.1539 30.7934 72.5228 31.1925 73.9098 31.1281C74.5575 31.1255 75.203 31.0537 75.8355 30.914C76.4565 30.7854 77.0502 30.5491 77.5897 30.2157C78.1049 29.8939 78.542 29.4613 78.8691 28.9495C79.2159 28.3837 79.3901 27.729 79.3703 27.0657C79.3836 26.5268 79.266 25.9927 79.0274 25.5093C78.8104 25.0843 78.5098 24.7074 78.1437 24.4014C77.7709 24.0954 77.3519 23.8505 76.9023 23.676C76.4482 23.4945 75.9746 23.3662 75.491 23.2935L73.2751 22.7923C72.9938 22.7219 72.686 22.6296 72.3519 22.5153C72.0285 22.406 71.7187 22.26 71.4286 22.08C71.156 21.912 70.9189 21.6925 70.7303 21.4337C70.5396 21.1595 70.4425 20.8311 70.4533 20.4973C70.4399 20.1075 70.5408 19.7224 70.7435 19.3893C70.9372 19.0901 71.1995 18.8414 71.5085 18.6639C71.8322 18.4765 72.1841 18.3429 72.5505 18.2682C72.9191 18.1901 73.2948 18.1503 73.6716 18.1495C74.1257 18.1468 74.5781 18.2045 75.017 18.321C75.4223 18.4278 75.803 18.6122 76.1381 18.8641C76.4647 19.113 76.73 19.4333 76.9139 19.8005C77.1172 20.2148 77.2264 20.6689 77.2336 21.1304V21.1304ZM80.2408 17.1471L85.6719 30.706L85.0946 32.2329C84.9539 32.5495 84.822 32.8397 84.6989 33.1035C84.587 33.3506 84.4355 33.5778 84.2505 33.7761C84.0744 33.9608 83.8634 34.1088 83.6298 34.2114C83.3404 34.3255 83.0305 34.3783 82.7197 34.3666C82.53 34.3668 82.3404 34.3536 82.1526 34.327C81.9679 34.3006 81.7788 34.2698 81.5854 34.2347V35.6312C81.7423 35.6871 81.9069 35.7183 82.0734 35.7235L82.8493 35.7631C83.2891 35.7734 83.7283 35.7246 84.1551 35.618C84.4854 35.528 84.7917 35.3658 85.052 35.1432C85.3352 34.8872 85.5715 34.5837 85.7502 34.2463C86.0039 33.7794 86.2328 33.2995 86.4361 32.8086L92.3451 17.1362H90.687L86.4927 28.754L82.0082 17.1471H80.2408ZM93.9581 17.1471V30.7588H95.62V22.8186C95.6311 22.1844 95.7423 21.556 95.9497 20.9566C96.1351 20.4161 96.4216 19.9158 96.7938 19.4824C97.1584 19.0662 97.6082 18.7333 98.1128 18.5064C98.6736 18.2604 99.2811 18.1389 99.8934 18.1503C100.468 18.1318 101.04 18.2399 101.569 18.4668C101.994 18.6592 102.362 18.9593 102.637 19.3373C102.91 19.7292 103.098 20.1737 103.189 20.6423C103.297 21.1763 103.349 21.72 103.344 22.2647V30.7588H105.006V22.0009C105.014 21.2642 104.935 20.5292 104.769 19.8114C104.633 19.2042 104.352 18.6387 103.951 18.1627C103.533 17.6928 103.005 17.3346 102.413 17.1207C101.647 16.8542 100.838 16.729 100.026 16.7514C99.0846 16.7441 98.1605 17.0049 97.3618 17.5032C96.5914 17.9587 95.9967 18.6603 95.6735 19.4948H95.6207V17.1471H93.9581ZM117.752 21.4205H119.414C119.369 20.7431 119.186 20.0821 118.875 19.4786C118.564 18.875 118.133 18.3418 117.607 17.9121C116.538 17.1182 115.232 16.7082 113.901 16.7483C112.95 16.7297 112.007 16.9282 111.144 17.3286C110.368 17.6972 109.68 18.2279 109.127 18.885C108.569 19.5579 108.147 20.3329 107.886 21.1668C107.6 22.0666 107.457 23.0058 107.464 23.9498C107.457 24.8939 107.6 25.8331 107.886 26.7329C108.147 27.5668 108.569 28.3418 109.127 29.0147C109.678 29.6703 110.367 30.1971 111.144 30.5579C112.009 30.9497 112.951 31.1435 113.901 31.125C115.301 31.1809 116.667 30.6834 117.703 29.7401C118.741 28.7046 119.383 27.3385 119.52 25.8786H117.858C117.811 26.4185 117.668 26.9456 117.436 27.435C117.22 27.8927 116.925 28.3087 116.565 28.664C116.215 29.006 115.803 29.2789 115.352 29.4685C114.893 29.6624 114.399 29.7611 113.901 29.7587C113.175 29.7746 112.457 29.6019 111.817 29.2575C111.229 28.9325 110.721 28.4822 110.326 27.9385C109.922 27.3746 109.618 26.7445 109.43 26.0765C109.228 25.3867 109.126 24.6716 109.126 23.9529C109.126 23.2343 109.228 22.5192 109.43 21.8294C109.618 21.1614 109.922 20.5313 110.326 19.9673C110.721 19.4237 111.229 18.9734 111.817 18.6484C112.457 18.3039 113.175 18.1312 113.901 18.1472C114.843 18.0892 115.771 18.4016 116.486 19.0177C117.141 19.6721 117.583 20.5099 117.752 21.4205Z" fill="white"/>
</g>
<defs>
<clipPath id="clip0_2088_25179">
<rect width="131.426" height="45" fill="white" transform="translate(0 0.5)"/>
</clipPath>
</defs>
</svg>
